<svg xmlns="http://www.w3.org/2000/svg" xmlns:xlink="http://www.w3.org/1999/xlink" width="500" zoomAndPan="magnify" viewBox="0 0 375 374.999991" height="500" preserveAspectRatio="xMidYMid meet" version="1.0"><defs><g/><linearGradient x1="0" gradientTransform="matrix(0.75, 0, 0, 0.75, 0.0000045, 0)" y1="250" x2="499.999979" gradientUnits="userSpaceOnUse" y2="250" id="8bb090e7b1"><stop stop-opacity="1" stop-color="rgb(36.499023%, 87.799072%, 90.19928%)" offset="0"/><stop stop-opacity="1" stop-color="rgb(36.355591%, 87.568665%, 90.110779%)" offset="0.00390625"/><stop stop-opacity="1" stop-color="rgb(36.213684%, 87.339783%, 90.023804%)" offset="0.0078125"/><stop stop-opacity="1" stop-color="rgb(36.070251%, 87.109375%, 89.936829%)" offset="0.0117187"/><stop stop-opacity="1" stop-color="rgb(35.928345%, 86.880493%, 89.849854%)" offset="0.015625"/><stop stop-opacity="1" stop-color="rgb(35.786438%, 86.650085%, 89.761353%)" offset="0.0195312"/><stop stop-opacity="1" stop-color="rgb(35.644531%, 86.421204%, 89.674377%)" offset="0.0234375"/><stop stop-opacity="1" stop-color="rgb(35.501099%, 86.190796%, 89.585876%)" offset="0.0273438"/><stop stop-opacity="1" stop-color="rgb(35.359192%, 85.961914%, 89.498901%)" offset="0.03125"/><stop stop-opacity="1" stop-color="rgb(35.215759%, 85.731506%, 89.411926%)" offset="0.0351562"/><stop stop-opacity="1" stop-color="rgb(35.073853%, 85.502625%, 89.324951%)" offset="0.0390625"/><stop stop-opacity="1" stop-color="rgb(34.93042%, 85.272217%, 89.23645%)" offset="0.0429687"/><stop stop-opacity="1" stop-color="rgb(34.788513%, 85.043335%, 89.149475%)" offset="0.046875"/><stop stop-opacity="1" stop-color="rgb(34.645081%, 84.812927%, 89.060974%)" offset="0.0507812"/><stop stop-opacity="1" stop-color="rgb(34.503174%, 84.584045%, 88.973999%)" offset="0.0546875"/><stop stop-opacity="1" stop-color="rgb(34.359741%, 84.353638%, 88.885498%)" offset="0.0585938"/><stop stop-opacity="1" stop-color="rgb(34.217834%, 84.124756%, 88.798523%)" offset="0.0625"/><stop stop-opacity="1" stop-color="rgb(34.074402%, 83.894348%, 88.711548%)" offset="0.0664062"/><stop stop-opacity="1" stop-color="rgb(33.932495%, 83.665466%, 88.624573%)" offset="0.0703125"/><stop stop-opacity="1" stop-color="rgb(33.789062%, 83.435059%, 88.536072%)" offset="0.0742187"/><stop stop-opacity="1" stop-color="rgb(33.647156%, 83.206177%, 88.449097%)" offset="0.078125"/><stop stop-opacity="1" stop-color="rgb(33.503723%, 82.975769%, 88.360596%)" offset="0.0820312"/><stop stop-opacity="1" stop-color="rgb(33.361816%, 82.745361%, 88.273621%)" offset="0.0859375"/><stop stop-opacity="1" stop-color="rgb(33.21991%, 82.514954%, 88.186646%)" offset="0.0898437"/><stop stop-opacity="1" stop-color="rgb(33.078003%, 82.286072%, 88.09967%)" offset="0.09375"/><stop stop-opacity="1" stop-color="rgb(32.93457%, 82.055664%, 88.011169%)" offset="0.0976562"/><stop stop-opacity="1" stop-color="rgb(32.792664%, 81.826782%, 87.924194%)" offset="0.101562"/><stop stop-opacity="1" stop-color="rgb(32.649231%, 81.596375%, 87.835693%)" offset="0.105469"/><stop stop-opacity="1" stop-color="rgb(32.507324%, 81.367493%, 87.748718%)" offset="0.109375"/><stop stop-opacity="1" stop-color="rgb(32.363892%, 81.137085%, 87.661743%)" offset="0.113281"/><stop stop-opacity="1" stop-color="rgb(32.221985%, 80.908203%, 87.574768%)" offset="0.117188"/><stop stop-opacity="1" stop-color="rgb(32.078552%, 80.677795%, 87.486267%)" offset="0.121094"/><stop stop-opacity="1" stop-color="rgb(31.936646%, 80.448914%, 87.399292%)" offset="0.125"/><stop stop-opacity="1" stop-color="rgb(31.793213%, 80.218506%, 87.310791%)" offset="0.128906"/><stop stop-opacity="1" stop-color="rgb(31.651306%, 79.989624%, 87.223816%)" offset="0.132812"/><stop stop-opacity="1" stop-color="rgb(31.507874%, 79.759216%, 87.136841%)" offset="0.136719"/><stop stop-opacity="1" stop-color="rgb(31.365967%, 79.530334%, 87.049866%)" offset="0.140625"/><stop stop-opacity="1" stop-color="rgb(31.222534%, 79.299927%, 86.961365%)" offset="0.144531"/><stop stop-opacity="1" stop-color="rgb(31.080627%, 79.071045%, 86.87439%)" offset="0.148437"/><stop stop-opacity="1" stop-color="rgb(30.938721%, 78.840637%, 86.785889%)" offset="0.152344"/><stop stop-opacity="1" stop-color="rgb(30.796814%, 78.611755%, 86.698914%)" offset="0.15625"/><stop stop-opacity="1" stop-color="rgb(30.653381%, 78.381348%, 86.611938%)" offset="0.160156"/><stop stop-opacity="1" stop-color="rgb(30.511475%, 78.152466%, 86.524963%)" offset="0.164062"/><stop stop-opacity="1" stop-color="rgb(30.368042%, 77.922058%, 86.436462%)" offset="0.167969"/><stop stop-opacity="1" stop-color="rgb(30.226135%, 77.693176%, 86.349487%)" offset="0.171875"/><stop stop-opacity="1" stop-color="rgb(30.082703%, 77.462769%, 86.260986%)" offset="0.175781"/><stop stop-opacity="1" stop-color="rgb(29.940796%, 77.233887%, 86.174011%)" offset="0.179687"/><stop stop-opacity="1" stop-color="rgb(29.797363%, 77.003479%, 86.08551%)" offset="0.183594"/><stop stop-opacity="1" stop-color="rgb(29.655457%, 76.774597%, 85.998535%)" offset="0.1875"/><stop stop-opacity="1" stop-color="rgb(29.512024%, 76.544189%, 85.91156%)" offset="0.191406"/><stop stop-opacity="1" stop-color="rgb(29.370117%, 76.315308%, 85.824585%)" offset="0.195312"/><stop stop-opacity="1" stop-color="rgb(29.226685%, 76.0849%, 85.736084%)" offset="0.199219"/><stop stop-opacity="1" stop-color="rgb(29.084778%, 75.856018%, 85.649109%)" offset="0.203125"/><stop stop-opacity="1" stop-color="rgb(28.941345%, 75.62561%, 85.560608%)" offset="0.207031"/><stop stop-opacity="1" stop-color="rgb(28.799438%, 75.396729%, 85.473633%)" offset="0.210938"/><stop stop-opacity="1" stop-color="rgb(28.657532%, 75.166321%, 85.386658%)" offset="0.214844"/><stop stop-opacity="1" stop-color="rgb(28.515625%, 74.937439%, 85.299683%)" offset="0.21875"/><stop stop-opacity="1" stop-color="rgb(28.372192%, 74.707031%, 85.211182%)" offset="0.222656"/><stop stop-opacity="1" stop-color="rgb(28.230286%, 74.476624%, 85.124207%)" offset="0.226562"/><stop stop-opacity="1" stop-color="rgb(28.086853%, 74.246216%, 85.035706%)" offset="0.230469"/><stop stop-opacity="1" stop-color="rgb(27.944946%, 74.017334%, 84.94873%)" offset="0.234375"/><stop stop-opacity="1" stop-color="rgb(27.801514%, 73.786926%, 84.861755%)" offset="0.238281"/><stop stop-opacity="1" stop-color="rgb(27.659607%, 73.558044%, 84.77478%)" offset="0.242188"/><stop stop-opacity="1" stop-color="rgb(27.516174%, 73.327637%, 84.686279%)" offset="0.246094"/><stop stop-opacity="1" stop-color="rgb(27.374268%, 73.098755%, 84.599304%)" offset="0.25"/><stop stop-opacity="1" stop-color="rgb(27.230835%, 72.868347%, 84.510803%)" offset="0.253906"/><stop stop-opacity="1" stop-color="rgb(27.088928%, 72.639465%, 84.423828%)" offset="0.257812"/><stop stop-opacity="1" stop-color="rgb(26.945496%, 72.409058%, 84.336853%)" offset="0.261719"/><stop stop-opacity="1" stop-color="rgb(26.803589%, 72.180176%, 84.249878%)" offset="0.265625"/><stop stop-opacity="1" stop-color="rgb(26.660156%, 71.949768%, 84.161377%)" offset="0.269531"/><stop stop-opacity="1" stop-color="rgb(26.51825%, 71.720886%, 84.074402%)" offset="0.273437"/><stop stop-opacity="1" stop-color="rgb(26.374817%, 71.490479%, 83.985901%)" offset="0.277344"/><stop stop-opacity="1" stop-color="rgb(26.23291%, 71.261597%, 83.898926%)" offset="0.28125"/><stop stop-opacity="1" stop-color="rgb(26.091003%, 71.031189%, 83.811951%)" offset="0.285156"/><stop stop-opacity="1" stop-color="rgb(25.949097%, 70.802307%, 83.724976%)" offset="0.289062"/><stop stop-opacity="1" stop-color="rgb(25.805664%, 70.571899%, 83.636475%)" offset="0.292969"/><stop stop-opacity="1" stop-color="rgb(25.663757%, 70.343018%, 83.5495%)" offset="0.296875"/><stop stop-opacity="1" stop-color="rgb(25.520325%, 70.11261%, 83.460999%)" offset="0.300781"/><stop stop-opacity="1" stop-color="rgb(25.378418%, 69.883728%, 83.374023%)" offset="0.304687"/><stop stop-opacity="1" stop-color="rgb(25.234985%, 69.65332%, 83.285522%)" offset="0.308594"/><stop stop-opacity="1" stop-color="rgb(25.093079%, 69.424438%, 83.198547%)" offset="0.3125"/><stop stop-opacity="1" stop-color="rgb(24.949646%, 69.194031%, 83.111572%)" offset="0.316406"/><stop stop-opacity="1" stop-color="rgb(24.807739%, 68.965149%, 83.024597%)" offset="0.320312"/><stop stop-opacity="1" stop-color="rgb(24.664307%, 68.734741%, 82.936096%)" offset="0.324219"/><stop stop-opacity="1" stop-color="rgb(24.5224%, 68.505859%, 82.849121%)" offset="0.328125"/><stop stop-opacity="1" stop-color="rgb(24.378967%, 68.275452%, 82.76062%)" offset="0.332031"/><stop stop-opacity="1" stop-color="rgb(24.237061%, 68.04657%, 82.673645%)" offset="0.335937"/><stop stop-opacity="1" stop-color="rgb(24.093628%, 67.816162%, 82.58667%)" offset="0.339844"/><stop stop-opacity="1" stop-color="rgb(23.951721%, 67.58728%, 82.499695%)" offset="0.34375"/><stop stop-opacity="1" stop-color="rgb(23.809814%, 67.356873%, 82.411194%)" offset="0.347656"/><stop stop-opacity="1" stop-color="rgb(23.667908%, 67.127991%, 82.324219%)" offset="0.351562"/><stop stop-opacity="1" stop-color="rgb(23.524475%, 66.897583%, 82.235718%)" offset="0.355469"/><stop stop-opacity="1" stop-color="rgb(23.382568%, 66.668701%, 82.148743%)" offset="0.359375"/><stop stop-opacity="1" stop-color="rgb(23.239136%, 66.438293%, 82.061768%)" offset="0.363281"/><stop stop-opacity="1" stop-color="rgb(23.097229%, 66.207886%, 81.974792%)" offset="0.367187"/><stop stop-opacity="1" stop-color="rgb(22.953796%, 65.977478%, 81.886292%)" offset="0.371094"/><stop stop-opacity="1" stop-color="rgb(22.81189%, 65.748596%, 81.799316%)" offset="0.375"/><stop stop-opacity="1" stop-color="rgb(22.668457%, 65.518188%, 81.710815%)" offset="0.378906"/><stop stop-opacity="1" stop-color="rgb(22.52655%, 65.289307%, 81.62384%)" offset="0.382812"/><stop stop-opacity="1" stop-color="rgb(22.383118%, 65.058899%, 81.536865%)" offset="0.386719"/><stop stop-opacity="1" stop-color="rgb(22.241211%, 64.830017%, 81.44989%)" offset="0.390625"/><stop stop-opacity="1" stop-color="rgb(22.097778%, 64.599609%, 81.361389%)" offset="0.394531"/><stop stop-opacity="1" stop-color="rgb(21.955872%, 64.370728%, 81.274414%)" offset="0.398438"/><stop stop-opacity="1" stop-color="rgb(21.812439%, 64.14032%, 81.185913%)" offset="0.402344"/><stop stop-opacity="1" stop-color="rgb(21.670532%, 63.911438%, 81.098938%)" offset="0.40625"/><stop stop-opacity="1" stop-color="rgb(21.528625%, 63.68103%, 81.011963%)" offset="0.410156"/><stop stop-opacity="1" stop-color="rgb(21.386719%, 63.452148%, 80.924988%)" offset="0.414062"/><stop stop-opacity="1" stop-color="rgb(21.243286%, 63.221741%, 80.836487%)" offset="0.417969"/><stop stop-opacity="1" stop-color="rgb(21.101379%, 62.992859%, 80.749512%)" offset="0.421875"/><stop stop-opacity="1" stop-color="rgb(20.957947%, 62.762451%, 80.661011%)" offset="0.425781"/><stop stop-opacity="1" stop-color="rgb(20.81604%, 62.533569%, 80.574036%)" offset="0.429688"/><stop stop-opacity="1" stop-color="rgb(20.672607%, 62.303162%, 80.485535%)" offset="0.433594"/><stop stop-opacity="1" stop-color="rgb(20.530701%, 62.07428%, 80.39856%)" offset="0.4375"/><stop stop-opacity="1" stop-color="rgb(20.387268%, 61.843872%, 80.311584%)" offset="0.441406"/><stop stop-opacity="1" stop-color="rgb(20.245361%, 61.61499%, 80.224609%)" offset="0.445312"/><stop stop-opacity="1" stop-color="rgb(20.101929%, 61.384583%, 80.136108%)" offset="0.449219"/><stop stop-opacity="1" stop-color="rgb(19.960022%, 61.155701%, 80.049133%)" offset="0.453125"/><stop stop-opacity="1" stop-color="rgb(19.816589%, 60.925293%, 79.960632%)" offset="0.457031"/><stop stop-opacity="1" stop-color="rgb(19.674683%, 60.696411%, 79.873657%)" offset="0.460938"/><stop stop-opacity="1" stop-color="rgb(19.53125%, 60.466003%, 79.786682%)" offset="0.464844"/><stop stop-opacity="1" stop-color="rgb(19.389343%, 60.237122%, 79.699707%)" offset="0.46875"/><stop stop-opacity="1" stop-color="rgb(19.245911%, 60.006714%, 79.611206%)" offset="0.472656"/><stop stop-opacity="1" stop-color="rgb(19.104004%, 59.777832%, 79.524231%)" offset="0.476562"/><stop stop-opacity="1" stop-color="rgb(18.962097%, 59.547424%, 79.43573%)" offset="0.480469"/><stop stop-opacity="1" stop-color="rgb(18.82019%, 59.318542%, 79.348755%)" offset="0.484375"/><stop stop-opacity="1" stop-color="rgb(18.676758%, 59.088135%, 79.26178%)" offset="0.488281"/><stop stop-opacity="1" stop-color="rgb(18.534851%, 58.859253%, 79.174805%)" offset="0.492188"/><stop stop-opacity="1" stop-color="rgb(18.391418%, 58.628845%, 79.086304%)" offset="0.496094"/><stop stop-opacity="1" stop-color="rgb(18.249512%, 58.399963%, 78.999329%)" offset="0.5"/><stop stop-opacity="1" stop-color="rgb(18.106079%, 58.169556%, 78.910828%)" offset="0.503906"/><stop stop-opacity="1" stop-color="rgb(17.964172%, 57.939148%, 78.823853%)" offset="0.507812"/><stop stop-opacity="1" stop-color="rgb(17.82074%, 57.70874%, 78.736877%)" offset="0.511719"/><stop stop-opacity="1" stop-color="rgb(17.678833%, 57.479858%, 78.649902%)" offset="0.515625"/><stop stop-opacity="1" stop-color="rgb(17.5354%, 57.249451%, 78.561401%)" offset="0.519531"/><stop stop-opacity="1" stop-color="rgb(17.393494%, 57.020569%, 78.474426%)" offset="0.523437"/><stop stop-opacity="1" stop-color="rgb(17.250061%, 56.790161%, 78.385925%)" offset="0.527344"/><stop stop-opacity="1" stop-color="rgb(17.108154%, 56.561279%, 78.29895%)" offset="0.53125"/><stop stop-opacity="1" stop-color="rgb(16.964722%, 56.330872%, 78.211975%)" offset="0.535156"/><stop stop-opacity="1" stop-color="rgb(16.822815%, 56.10199%, 78.125%)" offset="0.539062"/><stop stop-opacity="1" stop-color="rgb(16.680908%, 55.871582%, 78.036499%)" offset="0.542969"/><stop stop-opacity="1" stop-color="rgb(16.539001%, 55.6427%, 77.949524%)" offset="0.546875"/><stop stop-opacity="1" stop-color="rgb(16.395569%, 55.412292%, 77.861023%)" offset="0.550781"/><stop stop-opacity="1" stop-color="rgb(16.253662%, 55.183411%, 77.774048%)" offset="0.554687"/><stop stop-opacity="1" stop-color="rgb(16.110229%, 54.953003%, 77.685547%)" offset="0.558594"/><stop stop-opacity="1" stop-color="rgb(15.968323%, 54.724121%, 77.598572%)" offset="0.5625"/><stop stop-opacity="1" stop-color="rgb(15.82489%, 54.493713%, 77.511597%)" offset="0.566406"/><stop stop-opacity="1" stop-color="rgb(15.682983%, 54.264832%, 77.424622%)" offset="0.570312"/><stop stop-opacity="1" stop-color="rgb(15.539551%, 54.034424%, 77.336121%)" offset="0.574219"/><stop stop-opacity="1" stop-color="rgb(15.397644%, 53.805542%, 77.249146%)" offset="0.578125"/><stop stop-opacity="1" stop-color="rgb(15.254211%, 53.575134%, 77.160645%)" offset="0.582031"/><stop stop-opacity="1" stop-color="rgb(15.112305%, 53.346252%, 77.073669%)" offset="0.585937"/><stop stop-opacity="1" stop-color="rgb(14.968872%, 53.115845%, 76.986694%)" offset="0.589844"/><stop stop-opacity="1" stop-color="rgb(14.826965%, 52.886963%, 76.899719%)" offset="0.59375"/><stop stop-opacity="1" stop-color="rgb(14.683533%, 52.656555%, 76.811218%)" offset="0.597656"/><stop stop-opacity="1" stop-color="rgb(14.541626%, 52.427673%, 76.724243%)" offset="0.601562"/><stop stop-opacity="1" stop-color="rgb(14.399719%, 52.197266%, 76.635742%)" offset="0.605469"/><stop stop-opacity="1" stop-color="rgb(14.257812%, 51.968384%, 76.548767%)" offset="0.609375"/><stop stop-opacity="1" stop-color="rgb(14.11438%, 51.737976%, 76.461792%)" offset="0.613281"/><stop stop-opacity="1" stop-color="rgb(13.972473%, 51.509094%, 76.374817%)" offset="0.617187"/><stop stop-opacity="1" stop-color="rgb(13.829041%, 51.278687%, 76.286316%)" offset="0.621094"/><stop stop-opacity="1" stop-color="rgb(13.687134%, 51.049805%, 76.199341%)" offset="0.625"/><stop stop-opacity="1" stop-color="rgb(13.543701%, 50.819397%, 76.11084%)" offset="0.628906"/><stop stop-opacity="1" stop-color="rgb(13.401794%, 50.590515%, 76.023865%)" offset="0.632812"/><stop stop-opacity="1" stop-color="rgb(13.258362%, 50.360107%, 75.93689%)" offset="0.636719"/><stop stop-opacity="1" stop-color="rgb(13.116455%, 50.131226%, 75.849915%)" offset="0.640625"/><stop stop-opacity="1" stop-color="rgb(12.973022%, 49.900818%, 75.761414%)" offset="0.644531"/><stop stop-opacity="1" stop-color="rgb(12.831116%, 49.67041%, 75.674438%)" offset="0.648437"/><stop stop-opacity="1" stop-color="rgb(12.687683%, 49.440002%, 75.585938%)" offset="0.652344"/><stop stop-opacity="1" stop-color="rgb(12.545776%, 49.211121%, 75.498962%)" offset="0.65625"/><stop stop-opacity="1" stop-color="rgb(12.402344%, 48.980713%, 75.410461%)" offset="0.660156"/><stop stop-opacity="1" stop-color="rgb(12.260437%, 48.751831%, 75.323486%)" offset="0.664062"/><stop stop-opacity="1" stop-color="rgb(12.117004%, 48.521423%, 75.236511%)" offset="0.667969"/><stop stop-opacity="1" stop-color="rgb(11.975098%, 48.292542%, 75.149536%)" offset="0.671875"/><stop stop-opacity="1" stop-color="rgb(11.833191%, 48.062134%, 75.061035%)" offset="0.675781"/><stop stop-opacity="1" stop-color="rgb(11.691284%, 47.833252%, 74.97406%)" offset="0.679687"/><stop stop-opacity="1" stop-color="rgb(11.547852%, 47.602844%, 74.885559%)" offset="0.683594"/><stop stop-opacity="1" stop-color="rgb(11.405945%, 47.373962%, 74.798584%)" offset="0.6875"/><stop stop-opacity="1" stop-color="rgb(11.262512%, 47.143555%, 74.711609%)" offset="0.691406"/><stop stop-opacity="1" stop-color="rgb(11.120605%, 46.914673%, 74.624634%)" offset="0.695312"/><stop stop-opacity="1" stop-color="rgb(10.977173%, 46.684265%, 74.536133%)" offset="0.699219"/><stop stop-opacity="1" stop-color="rgb(10.835266%, 46.455383%, 74.449158%)" offset="0.703125"/><stop stop-opacity="1" stop-color="rgb(10.691833%, 46.224976%, 74.360657%)" offset="0.707031"/><stop stop-opacity="1" stop-color="rgb(10.549927%, 45.996094%, 74.273682%)" offset="0.710937"/><stop stop-opacity="1" stop-color="rgb(10.406494%, 45.765686%, 74.186707%)" offset="0.714844"/><stop stop-opacity="1" stop-color="rgb(10.264587%, 45.536804%, 74.099731%)" offset="0.71875"/><stop stop-opacity="1" stop-color="rgb(10.121155%, 45.306396%, 74.01123%)" offset="0.722656"/><stop stop-opacity="1" stop-color="rgb(9.979248%, 45.077515%, 73.924255%)" offset="0.726562"/><stop stop-opacity="1" stop-color="rgb(9.835815%, 44.847107%, 73.835754%)" offset="0.730469"/><stop stop-opacity="1" stop-color="rgb(9.693909%, 44.618225%, 73.748779%)" offset="0.734375"/><stop stop-opacity="1" stop-color="rgb(9.552002%, 44.387817%, 73.661804%)" offset="0.738281"/><stop stop-opacity="1" stop-color="rgb(9.410095%, 44.158936%, 73.574829%)" offset="0.742187"/><stop stop-opacity="1" stop-color="rgb(9.266663%, 43.928528%, 73.486328%)" offset="0.746094"/><stop stop-opacity="1" stop-color="rgb(9.124756%, 43.699646%, 73.399353%)" offset="0.75"/><stop stop-opacity="1" stop-color="rgb(8.981323%, 43.469238%, 73.310852%)" offset="0.753906"/><stop stop-opacity="1" stop-color="rgb(8.839417%, 43.240356%, 73.223877%)" offset="0.757812"/><stop stop-opacity="1" stop-color="rgb(8.695984%, 43.009949%, 73.136902%)" offset="0.761719"/><stop stop-opacity="1" stop-color="rgb(8.554077%, 42.781067%, 73.049927%)" offset="0.765625"/><stop stop-opacity="1" stop-color="rgb(8.410645%, 42.550659%, 72.961426%)" offset="0.769531"/><stop stop-opacity="1" stop-color="rgb(8.268738%, 42.321777%, 72.874451%)" offset="0.773438"/><stop stop-opacity="1" stop-color="rgb(8.125305%, 42.09137%, 72.78595%)" offset="0.777344"/><stop stop-opacity="1" stop-color="rgb(7.983398%, 41.862488%, 72.698975%)" offset="0.78125"/><stop stop-opacity="1" stop-color="rgb(7.839966%, 41.63208%, 72.610474%)" offset="0.785156"/><stop stop-opacity="1" stop-color="rgb(7.698059%, 41.401672%, 72.523499%)" offset="0.789062"/><stop stop-opacity="1" stop-color="rgb(7.554626%, 41.171265%, 72.436523%)" offset="0.792969"/><stop stop-opacity="1" stop-color="rgb(7.41272%, 40.942383%, 72.349548%)" offset="0.796875"/><stop stop-opacity="1" stop-color="rgb(7.270813%, 40.711975%, 72.261047%)" offset="0.800781"/><stop stop-opacity="1" stop-color="rgb(7.128906%, 40.483093%, 72.174072%)" offset="0.804688"/><stop stop-opacity="1" stop-color="rgb(6.985474%, 40.252686%, 72.085571%)" offset="0.808594"/><stop stop-opacity="1" stop-color="rgb(6.843567%, 40.023804%, 71.998596%)" offset="0.8125"/><stop stop-opacity="1" stop-color="rgb(6.700134%, 39.793396%, 71.911621%)" offset="0.816406"/><stop stop-opacity="1" stop-color="rgb(6.558228%, 39.564514%, 71.824646%)" offset="0.820312"/><stop stop-opacity="1" stop-color="rgb(6.414795%, 39.334106%, 71.736145%)" offset="0.824219"/><stop stop-opacity="1" stop-color="rgb(6.272888%, 39.105225%, 71.64917%)" offset="0.828125"/><stop stop-opacity="1" stop-color="rgb(6.129456%, 38.874817%, 71.560669%)" offset="0.832031"/><stop stop-opacity="1" stop-color="rgb(5.987549%, 38.645935%, 71.473694%)" offset="0.835938"/><stop stop-opacity="1" stop-color="rgb(5.844116%, 38.415527%, 71.386719%)" offset="0.839844"/><stop stop-opacity="1" stop-color="rgb(5.702209%, 38.186646%, 71.299744%)" offset="0.84375"/><stop stop-opacity="1" stop-color="rgb(5.558777%, 37.956238%, 71.211243%)" offset="0.847656"/><stop stop-opacity="1" stop-color="rgb(5.41687%, 37.727356%, 71.124268%)" offset="0.851562"/><stop stop-opacity="1" stop-color="rgb(5.273438%, 37.496948%, 71.035767%)" offset="0.855469"/><stop stop-opacity="1" stop-color="rgb(5.131531%, 37.268066%, 70.948792%)" offset="0.859375"/><stop stop-opacity="1" stop-color="rgb(4.988098%, 37.037659%, 70.861816%)" offset="0.863281"/><stop stop-opacity="1" stop-color="rgb(4.846191%, 36.808777%, 70.774841%)" offset="0.867188"/><stop stop-opacity="1" stop-color="rgb(4.704285%, 36.578369%, 70.68634%)" offset="0.871094"/><stop stop-opacity="1" stop-color="rgb(4.562378%, 36.349487%, 70.599365%)" offset="0.875"/><stop stop-opacity="1" stop-color="rgb(4.418945%, 36.11908%, 70.510864%)" offset="0.878906"/><stop stop-opacity="1" stop-color="rgb(4.277039%, 35.890198%, 70.423889%)" offset="0.882812"/><stop stop-opacity="1" stop-color="rgb(4.133606%, 35.65979%, 70.336914%)" offset="0.886719"/><stop stop-opacity="1" stop-color="rgb(3.991699%, 35.430908%, 70.249939%)" offset="0.890625"/><stop stop-opacity="1" stop-color="rgb(3.848267%, 35.2005%, 70.161438%)" offset="0.894531"/><stop stop-opacity="1" stop-color="rgb(3.70636%, 34.971619%, 70.074463%)" offset="0.898438"/><stop stop-opacity="1" stop-color="rgb(3.562927%, 34.741211%, 69.985962%)" offset="0.902344"/><stop stop-opacity="1" stop-color="rgb(3.421021%, 34.512329%, 69.898987%)" offset="0.90625"/><stop stop-opacity="1" stop-color="rgb(3.277588%, 34.281921%, 69.810486%)" offset="0.910156"/><stop stop-opacity="1" stop-color="rgb(3.135681%, 34.05304%, 69.723511%)" offset="0.914062"/><stop stop-opacity="1" stop-color="rgb(2.992249%, 33.822632%, 69.636536%)" offset="0.917969"/><stop stop-opacity="1" stop-color="rgb(2.850342%, 33.59375%, 69.549561%)" offset="0.921875"/><stop stop-opacity="1" stop-color="rgb(2.706909%, 33.363342%, 69.46106%)" offset="0.925781"/><stop stop-opacity="1" stop-color="rgb(2.565002%, 33.132935%, 69.374084%)" offset="0.929688"/><stop stop-opacity="1" stop-color="rgb(2.423096%, 32.902527%, 69.285583%)" offset="0.933594"/><stop stop-opacity="1" stop-color="rgb(2.281189%, 32.673645%, 69.198608%)" offset="0.9375"/><stop stop-opacity="1" stop-color="rgb(2.137756%, 32.443237%, 69.111633%)" offset="0.941406"/><stop stop-opacity="1" stop-color="rgb(1.99585%, 32.214355%, 69.024658%)" offset="0.945312"/><stop stop-opacity="1" stop-color="rgb(1.852417%, 31.983948%, 68.936157%)" offset="0.949219"/><stop stop-opacity="1" stop-color="rgb(1.71051%, 31.755066%, 68.849182%)" offset="0.953125"/><stop stop-opacity="1" stop-color="rgb(1.567078%, 31.524658%, 68.760681%)" offset="0.957031"/><stop stop-opacity="1" stop-color="rgb(1.425171%, 31.295776%, 68.673706%)" offset="0.960938"/><stop stop-opacity="1" stop-color="rgb(1.281738%, 31.065369%, 68.586731%)" offset="0.964844"/><stop stop-opacity="1" stop-color="rgb(1.139832%, 30.836487%, 68.499756%)" offset="0.96875"/><stop stop-opacity="1" stop-color="rgb(0.996399%, 30.606079%, 68.411255%)" offset="0.972656"/><stop stop-opacity="1" stop-color="rgb(0.854492%, 30.377197%, 68.32428%)" offset="0.976562"/><stop stop-opacity="1" stop-color="rgb(0.71106%, 30.14679%, 68.235779%)" offset="0.980469"/><stop stop-opacity="1" stop-color="rgb(0.569153%, 29.917908%, 68.148804%)" offset="0.984375"/><stop stop-opacity="1" stop-color="rgb(0.42572%, 29.6875%, 68.061829%)" offset="0.988281"/><stop stop-opacity="1" stop-color="rgb(0.283813%, 29.458618%, 67.974854%)" offset="0.992188"/><stop stop-opacity="1" stop-color="rgb(0.141907%, 29.22821%, 67.886353%)" offset="0.996094"/><stop stop-opacity="1" stop-color="rgb(0%, 28.999329%, 67.799377%)" offset="1"/></linearGradient><clipPath id="3d9f44fea7"><path d="M 102 66.9375 L 275 66.9375 L 275 129 L 102 129 Z M 102 66.9375 " clip-rule="nonzero"/></clipPath><clipPath id="45a6961eb0"><path d="M 49.4375 144 L 111 144 L 111 152 L 49.4375 152 Z M 49.4375 144 " clip-rule="nonzero"/></clipPath><clipPath id="dc6f51cbe8"><path d="M 264 144 L 325.5625 144 L 325.5625 152 L 264 152 Z M 264 144 " clip-rule="nonzero"/></clipPath><clipPath id="e16a8ddcc3"><path d="M 128.304688 98 L 193 98 L 193 209 L 128.304688 209 Z M 128.304688 98 " clip-rule="nonzero"/></clipPath><clipPath id="aa4b474133"><path d="M 148 88.742188 L 227 88.742188 L 227 226.804688 L 148 226.804688 Z M 148 88.742188 " clip-rule="nonzero"/></clipPath></defs><rect x="-37.5" fill="url(#8bb090e7b1)" width="450" y="-37.499999" height="449.999989"/><g clip-path="url(#3d9f44fea7)"><path fill="#ff5757" d="M 111.015625 127.902344 C 123.316406 96.121094 154.449219 74.757812 188.476562 74.757812 C 222.5 74.757812 253.621094 96.121094 265.929688 127.902344 L 266.179688 128.542969 L 274.464844 128.542969 L 273.984375 127.195312 C 261.0625 91.160156 226.703125 66.9375 188.476562 66.9375 C 150.242188 66.9375 115.886719 91.160156 102.960938 127.199219 L 102.476562 128.546875 L 110.761719 128.546875 Z M 111.015625 127.902344 " fill-opacity="1" fill-rule="nonzero"/></g><path fill="#ff5757" d="M 263.847656 192.539062 C 250.277344 221.855469 220.699219 240.792969 188.476562 240.792969 C 156.257812 240.792969 126.671875 221.855469 113.09375 192.539062 L 112.824219 191.960938 L 104.347656 191.960938 L 104.945312 193.359375 C 119.300781 226.898438 152.089844 248.570312 188.472656 248.570312 C 224.855469 248.570312 257.640625 226.898438 271.996094 193.359375 L 272.59375 191.960938 L 264.121094 191.960938 Z M 263.847656 192.539062 " fill-opacity="1" fill-rule="nonzero"/><g clip-path="url(#45a6961eb0)"><path fill="#ff5757" d="M 49.679688 144.230469 L 55.625 151.445312 L 110.949219 151.445312 L 110.949219 144.230469 Z M 49.679688 144.230469 " fill-opacity="1" fill-rule="nonzero"/></g><path fill="#ff5757" d="M 59.039062 155.589844 L 64.988281 162.808594 L 110.949219 162.808594 L 110.949219 155.589844 Z M 59.039062 155.589844 " fill-opacity="1" fill-rule="nonzero"/><path fill="#ff5757" d="M 68.75 167.375 L 74.695312 174.585938 L 110.949219 174.585938 L 110.949219 167.375 Z M 68.75 167.375 " fill-opacity="1" fill-rule="nonzero"/><g clip-path="url(#dc6f51cbe8)"><path fill="#ff5757" d="M 325.296875 144.230469 L 319.351562 151.445312 L 264.027344 151.445312 L 264.027344 144.230469 Z M 325.296875 144.230469 " fill-opacity="1" fill-rule="nonzero"/></g><path fill="#ff5757" d="M 315.925781 155.589844 L 309.984375 162.808594 L 264.027344 162.808594 L 264.027344 155.589844 Z M 315.925781 155.589844 " fill-opacity="1" fill-rule="nonzero"/><path fill="#ff5757" d="M 306.21875 167.375 L 300.277344 174.585938 L 264.027344 174.585938 L 264.027344 167.375 Z M 306.21875 167.375 " fill-opacity="1" fill-rule="nonzero"/><g clip-path="url(#e16a8ddcc3)"><path fill="#5ce1e6" d="M 138.191406 157.773438 C 138.191406 131.585938 158.734375 110.160156 184.542969 108.605469 L 192.023438 98.835938 C 190.523438 98.714844 189.027344 98.601562 187.5 98.601562 C 154.824219 98.601562 128.328125 125.09375 128.328125 157.773438 C 128.328125 179.421875 139.992188 198.300781 157.34375 208.609375 L 159.910156 198.613281 C 146.816406 189.742188 138.191406 174.738281 138.191406 157.773438 Z M 138.191406 157.773438 " fill-opacity="1" fill-rule="nonzero"/></g><path fill="#5ce1e6" d="M 217.449219 106.808594 L 214.742188 116.707031 C 228.03125 125.558594 236.808594 140.648438 236.808594 157.773438 C 236.808594 183.957031 216.265625 205.382812 190.457031 206.929688 L 182.972656 216.710938 C 184.476562 216.828125 185.972656 216.941406 187.5 216.941406 C 220.175781 216.941406 246.671875 190.449219 246.671875 157.773438 C 246.671875 136.039062 234.914062 117.09375 217.449219 106.808594 Z M 217.449219 106.808594 " fill-opacity="1" fill-rule="nonzero"/><g clip-path="url(#aa4b474133)"><path fill="#5ce1e6" d="M 226.945312 142.980469 L 197.363281 142.980469 L 200.261719 132.339844 L 205.804688 112.027344 L 208.40625 102.472656 L 212.152344 88.742188 L 202.992188 100.722656 L 196.425781 109.3125 L 180.015625 130.765625 L 148.054688 172.566406 L 177.636719 172.566406 L 174.753906 183.140625 L 169.195312 203.515625 L 166.59375 213.070312 L 162.847656 226.804688 L 172.007812 214.824219 L 178.574219 206.234375 L 195.191406 184.496094 Z M 226.945312 142.980469 " fill-opacity="1" fill-rule="nonzero"/></g><g fill="#2d292b" fill-opacity="0.4"><g transform="translate(22.392998, 302.84775)"><g><path d="M 23.734375 -3.296875 C 23.734375 -1.097656 22.441406 0 19.859375 0 L 5.328125 0 C 4.691406 0 4.128906 -0.113281 3.640625 -0.34375 C 3.160156 -0.570312 2.757812 -0.863281 2.4375 -1.21875 C 2.125 -1.570312 1.882812 -1.984375 1.71875 -2.453125 C 1.5625 -2.921875 1.484375 -3.410156 1.484375 -3.921875 C 1.484375 -4.398438 1.5625 -4.867188 1.71875 -5.328125 C 1.882812 -5.796875 2.132812 -6.210938 2.46875 -6.578125 C 2.800781 -6.941406 3.210938 -7.234375 3.703125 -7.453125 C 4.203125 -7.671875 4.769531 -7.78125 5.40625 -7.78125 L 15.4375 -7.78125 C 16.488281 -7.78125 17.007812 -7.929688 17 -8.234375 C 16.988281 -8.546875 16.984375 -8.878906 16.984375 -9.234375 C 16.984375 -9.609375 16.988281 -9.953125 17 -10.265625 C 17.007812 -10.585938 16.488281 -10.75 15.4375 -10.75 L 5.1875 -10.75 C 3.875 -10.75 2.847656 -10.992188 2.109375 -11.484375 C 1.378906 -11.972656 1 -13.003906 0.96875 -14.578125 C 0.863281 -16.410156 1.1875 -18.582031 1.9375 -21.09375 C 2.6875 -23.613281 4.128906 -25.414062 6.265625 -26.5 C 8.398438 -27.582031 10.726562 -28.125 13.25 -28.125 L 19 -28.125 C 19.664062 -28.125 20.25 -28.007812 20.75 -27.78125 C 21.257812 -27.5625 21.6875 -27.269531 22.03125 -26.90625 C 22.375 -26.550781 22.632812 -26.140625 22.8125 -25.671875 C 22.988281 -25.203125 23.078125 -24.726562 23.078125 -24.25 C 23.078125 -23.769531 23.019531 -23.359375 22.90625 -23.015625 C 22.800781 -22.671875 22.578125 -22.304688 22.234375 -21.921875 C 21.890625 -21.546875 21.457031 -21.242188 20.9375 -21.015625 C 20.414062 -20.785156 19.820312 -20.671875 19.15625 -20.671875 L 10.5 -20.671875 C 9.707031 -20.671875 9.128906 -20.441406 8.765625 -19.984375 C 8.398438 -19.523438 8.171875 -19.070312 8.078125 -18.625 C 7.984375 -18.1875 8.066406 -17.867188 8.328125 -17.671875 C 8.585938 -17.472656 8.984375 -17.375 9.515625 -17.375 L 19.375 -17.375 C 22.195312 -17.375 23.632812 -16.6875 23.6875 -15.3125 C 23.75 -13.945312 23.765625 -9.941406 23.734375 -3.296875 Z M 23.734375 -3.296875 "/></g></g></g><g fill="#2d292b" fill-opacity="0.4"><g transform="translate(46.659024, 302.84775)"><g><path d="M 17.71875 -8.46875 L 17.71875 -24.265625 C 17.71875 -25.453125 18.09375 -26.359375 18.84375 -26.984375 C 19.601562 -27.609375 20.507812 -27.921875 21.5625 -27.921875 C 22.613281 -27.921875 23.519531 -27.609375 24.28125 -26.984375 C 25.050781 -26.359375 25.4375 -25.453125 25.4375 -24.265625 L 25.4375 -3.78125 C 25.4375 -1.25 24.144531 0.015625 21.5625 0.015625 L 14.890625 0.03125 L 13.15625 -0.0625 C 11.976562 -0.1875 10.816406 -0.453125 9.671875 -0.859375 C 7.953125 -1.453125 6.425781 -2.363281 5.09375 -3.59375 C 3.769531 -4.820312 2.691406 -6.335938 1.859375 -8.140625 C 1.035156 -9.953125 0.625 -12.085938 0.625 -14.546875 L 0.625 -24 C 0.625 -24.644531 0.738281 -25.210938 0.96875 -25.703125 C 1.195312 -26.191406 1.492188 -26.601562 1.859375 -26.9375 C 2.234375 -27.28125 2.65625 -27.535156 3.125 -27.703125 C 3.59375 -27.867188 4.078125 -27.953125 4.578125 -27.953125 C 5.085938 -27.953125 5.582031 -27.867188 6.0625 -27.703125 C 6.539062 -27.535156 6.957031 -27.28125 7.3125 -26.9375 C 7.675781 -26.601562 7.972656 -26.191406 8.203125 -25.703125 C 8.429688 -25.210938 8.546875 -24.644531 8.546875 -24 L 8.546875 -13.953125 C 8.546875 -12.859375 8.71875 -11.910156 9.0625 -11.109375 C 9.40625 -10.304688 9.941406 -9.617188 10.671875 -9.046875 C 11.398438 -8.472656 12.550781 -8.125 14.125 -8 C 15.53125 -7.863281 16.640625 -7.820312 17.453125 -7.875 C 17.554688 -7.914062 17.632812 -7.960938 17.6875 -8.015625 L 17.6875 -8.46875 Z M 17.71875 -8.46875 "/></g></g></g><g fill="#2d292b" fill-opacity="0.4"><g transform="translate(72.719644, 302.84775)"><g><path d="M 16.53125 -20.28125 L 9.625 -20.28125 C 9.476562 -20.25 9.363281 -20.195312 9.28125 -20.125 L 9.28125 -17.03125 C 9.457031 -16.914062 9.769531 -16.835938 10.21875 -16.796875 L 16.21875 -16.796875 C 16.457031 -16.835938 16.632812 -16.890625 16.75 -16.953125 L 16.75 -20.1875 C 16.6875 -20.226562 16.613281 -20.257812 16.53125 -20.28125 Z M 9.28125 -9.359375 L 9.28125 -3.921875 C 9.28125 -2.628906 8.894531 -1.65625 8.125 -1 C 7.351562 -0.351562 6.453125 -0.03125 5.421875 -0.03125 C 4.378906 -0.03125 3.476562 -0.351562 2.71875 -1 C 1.957031 -1.65625 1.578125 -2.628906 1.578125 -3.921875 L 1.578125 -24.203125 C 1.578125 -26.816406 2.859375 -28.125 5.421875 -28.125 L 20.546875 -28.125 C 21.773438 -28.125 22.726562 -27.738281 23.40625 -26.96875 C 24.082031 -26.195312 24.410156 -25.078125 24.390625 -23.609375 L 24.390625 -13.125 C 24.390625 -11.875 24.015625 -10.929688 23.265625 -10.296875 C 22.523438 -9.671875 21.644531 -9.359375 20.625 -9.359375 Z M 9.28125 -9.359375 "/></g></g></g><g fill="#2d292b" fill-opacity="0.4"><g transform="translate(97.980505, 302.84775)"><g><path d="M 13.03125 -7.78125 L 26.984375 -7.78125 C 28.210938 -7.78125 29.164062 -7.398438 29.84375 -6.640625 C 30.519531 -5.890625 30.859375 -4.984375 30.859375 -3.921875 C 30.859375 -2.859375 30.519531 -1.9375 29.84375 -1.15625 C 29.164062 -0.382812 28.210938 0 26.984375 0 L 5.828125 0 L 5.828125 -0.078125 C 5.566406 -0.015625 5.300781 0.015625 5.03125 0.015625 C 4.019531 0.0234375 3.109375 -0.300781 2.296875 -0.96875 C 1.492188 -1.664062 1.003906 -2.507812 0.828125 -3.5 C 0.660156 -4.5 0.992188 -5.484375 1.828125 -6.453125 L 18.671875 -26.6875 C 19.460938 -27.632812 20.363281 -28.125 21.375 -28.15625 C 21.550781 -28.15625 21.722656 -28.144531 21.890625 -28.125 L 26.984375 -28.125 C 28.210938 -28.125 29.164062 -27.738281 29.84375 -26.96875 C 30.519531 -26.195312 30.859375 -25.273438 30.859375 -24.203125 C 30.859375 -23.140625 30.519531 -22.21875 29.84375 -21.4375 C 29.164062 -20.664062 28.210938 -20.28125 26.984375 -20.28125 L 23.453125 -20.28125 L 21.21875 -17.609375 L 27.1875 -17.609375 C 28.3125 -17.609375 29.1875 -17.257812 29.8125 -16.5625 C 30.4375 -15.863281 30.75 -15.03125 30.75 -14.0625 C 30.75 -13.101562 30.4375 -12.269531 29.8125 -11.5625 C 29.1875 -10.863281 28.3125 -10.515625 27.1875 -10.515625 L 15.3125 -10.515625 Z M 13.03125 -7.78125 "/></g></g></g><g fill="#2d292b" fill-opacity="0.4"><g transform="translate(130.41974, 302.84775)"><g><path d="M 20.015625 -10.859375 L 24.203125 -5.546875 C 24.984375 -4.523438 25.226562 -3.5625 24.9375 -2.65625 C 24.644531 -1.757812 24.09375 -1.050781 23.28125 -0.53125 C 22.425781 0 21.535156 0.195312 20.609375 0.0625 C 19.679688 -0.0703125 18.828125 -0.644531 18.046875 -1.65625 L 10.65625 -11.078125 C 10.039062 -12.054688 9.867188 -13 10.140625 -13.90625 C 10.335938 -14.59375 10.640625 -15.171875 11.046875 -15.640625 C 11.066406 -15.671875 11.082031 -15.695312 11.09375 -15.71875 C 11.6875 -16.269531 12.398438 -16.578125 13.234375 -16.640625 L 14.4375 -16.640625 L 16.609375 -16.65625 C 17.628906 -16.601562 18.414062 -16.59375 18.96875 -16.625 L 15.234375 -20.671875 L 9.421875 -20.671875 C 9.265625 -20.640625 9.148438 -20.582031 9.078125 -20.5 L 9.078125 -20.046875 L 9.046875 -20.046875 L 9.046875 -3.90625 L 9.03125 -3.90625 C 9.03125 -1.300781 7.726562 0 5.125 0 C 2.789062 0 1.625 -1.316406 1.625 -3.953125 L 1.625 -24.203125 C 1.625 -26.816406 2.726562 -28.125 4.9375 -28.125 L 16.234375 -28.125 C 17.222656 -28.125 18.539062 -27.382812 20.1875 -25.90625 L 23.609375 -21.671875 C 24.785156 -20.097656 25.347656 -18.726562 25.296875 -17.5625 C 25.335938 -17.207031 25.335938 -16.890625 25.296875 -16.609375 L 25.296875 -14.59375 C 25.296875 -13.34375 24.910156 -12.40625 24.140625 -11.78125 C 23.378906 -11.164062 22.484375 -10.859375 21.453125 -10.859375 Z M 20.015625 -10.859375 "/></g></g></g><g fill="#2d292b" fill-opacity="0.4"><g transform="translate(156.655924, 302.84775)"><g/></g></g><g fill="#2d292b" fill-opacity="0.4"><g transform="translate(166.565201, 302.84775)"><g><path d="M 10.28125 -7.71875 L 20.8125 -7.71875 C 22 -7.71875 22.90625 -7.34375 23.53125 -6.59375 C 24.15625 -5.84375 24.46875 -4.9375 24.46875 -3.875 C 24.46875 -2.820312 24.15625 -1.910156 23.53125 -1.140625 C 22.90625 -0.378906 22 0 20.8125 0 L 4.8125 0 C 2.28125 0 1.015625 -1.289062 1.015625 -3.875 L 1 -13.875 L 1.09375 -15.609375 C 1.21875 -16.773438 1.484375 -17.929688 1.890625 -19.078125 C 2.492188 -20.796875 3.410156 -22.320312 4.640625 -23.65625 C 5.867188 -24.988281 7.382812 -26.066406 9.1875 -26.890625 C 11 -27.710938 13.132812 -28.125 15.59375 -28.125 L 19.765625 -28.125 C 20.410156 -28.125 20.976562 -28.007812 21.46875 -27.78125 C 21.957031 -27.5625 22.367188 -27.265625 22.703125 -26.890625 C 23.046875 -26.523438 23.300781 -26.109375 23.46875 -25.640625 C 23.632812 -25.171875 23.71875 -24.679688 23.71875 -24.171875 C 23.71875 -23.660156 23.632812 -23.164062 23.46875 -22.6875 C 23.300781 -22.207031 23.046875 -21.785156 22.703125 -21.421875 C 22.367188 -21.066406 21.957031 -20.773438 21.46875 -20.546875 C 20.976562 -20.316406 20.410156 -20.203125 19.765625 -20.203125 L 14.984375 -20.203125 C 13.890625 -20.203125 12.941406 -20.03125 12.140625 -19.6875 C 11.335938 -19.34375 10.648438 -18.804688 10.078125 -18.078125 C 9.515625 -17.347656 9.164062 -16.207031 9.03125 -14.65625 C 8.90625 -13.101562 8.875 -11.113281 8.9375 -8.6875 C 9.050781 -8.082031 9.5 -7.757812 10.28125 -7.71875 Z M 10.28125 -7.71875 "/></g></g></g><g fill="#2d292b" fill-opacity="0.4"><g transform="translate(191.435933, 302.84775)"><g><path d="M 19.25 -7.78125 C 20.445312 -7.78125 21.359375 -7.398438 21.984375 -6.640625 C 22.617188 -5.890625 22.9375 -4.984375 22.9375 -3.921875 C 22.9375 -2.859375 22.617188 -1.9375 21.984375 -1.15625 C 21.359375 -0.382812 20.445312 0 19.25 0 L 5.421875 0 C 2.859375 0 1.578125 -1.304688 1.578125 -3.921875 L 1.578125 -24.40625 C 1.578125 -25.644531 1.957031 -26.59375 2.71875 -27.25 C 3.476562 -27.914062 4.378906 -28.25 5.421875 -28.25 C 6.453125 -28.25 7.351562 -27.914062 8.125 -27.25 C 8.894531 -26.59375 9.28125 -25.644531 9.28125 -24.40625 L 9.28125 -8.609375 C 9.351562 -8.015625 9.679688 -7.738281 10.265625 -7.78125 Z M 19.25 -7.78125 "/></g></g></g><g fill="#2d292b" fill-opacity="0.4"><g transform="translate(215.272817, 302.84775)"><g><path d="M 1.109375 -14.0625 C 1.109375 -16.050781 1.484375 -17.914062 2.234375 -19.65625 C 2.984375 -21.394531 4.003906 -22.910156 5.296875 -24.203125 C 6.597656 -25.503906 8.117188 -26.53125 9.859375 -27.28125 C 11.597656 -28.03125 13.460938 -28.40625 15.453125 -28.40625 C 17.453125 -28.40625 19.320312 -28.03125 21.0625 -27.28125 C 22.8125 -26.53125 24.332031 -25.503906 25.625 -24.203125 C 26.914062 -22.910156 27.941406 -21.394531 28.703125 -19.65625 C 29.460938 -17.914062 29.84375 -16.050781 29.84375 -14.0625 C 29.84375 -12.0625 29.460938 -10.195312 28.703125 -8.46875 C 27.941406 -6.738281 26.914062 -5.21875 25.625 -3.90625 C 24.332031 -2.601562 22.8125 -1.582031 21.0625 -0.84375 C 19.320312 -0.101562 17.453125 0.265625 15.453125 0.265625 C 13.460938 0.265625 11.597656 -0.101562 9.859375 -0.84375 C 8.117188 -1.582031 6.597656 -2.601562 5.296875 -3.90625 C 4.003906 -5.21875 2.984375 -6.738281 2.234375 -8.46875 C 1.484375 -10.195312 1.109375 -12.0625 1.109375 -14.0625 Z M 8.96875 -13.953125 C 8.96875 -13.035156 9.144531 -12.179688 9.5 -11.390625 C 9.851562 -10.609375 10.320312 -9.925781 10.90625 -9.34375 C 11.488281 -8.757812 12.171875 -8.300781 12.953125 -7.96875 C 13.742188 -7.632812 14.585938 -7.46875 15.484375 -7.46875 C 16.398438 -7.46875 17.25 -7.632812 18.03125 -7.96875 C 18.820312 -8.300781 19.515625 -8.757812 20.109375 -9.34375 C 20.710938 -9.925781 21.1875 -10.609375 21.53125 -11.390625 C 21.875 -12.179688 22.046875 -13.035156 22.046875 -13.953125 C 22.046875 -14.847656 21.875 -15.691406 21.53125 -16.484375 C 21.1875 -17.285156 20.710938 -17.976562 20.109375 -18.5625 C 19.515625 -19.15625 18.820312 -19.625 18.03125 -19.96875 C 17.25 -20.320312 16.398438 -20.5 15.484375 -20.5 C 14.585938 -20.5 13.742188 -20.320312 12.953125 -19.96875 C 12.171875 -19.625 11.488281 -19.15625 10.90625 -18.5625 C 10.320312 -17.976562 9.851562 -17.285156 9.5 -16.484375 C 9.144531 -15.691406 8.96875 -14.847656 8.96875 -13.953125 Z M 8.96875 -13.953125 "/></g></g></g><g fill="#2d292b" fill-opacity="0.4"><g transform="translate(246.229562, 302.84775)"><g><path d="M 16.90625 -3.703125 C 16.90625 -2.429688 16.519531 -1.46875 15.75 -0.8125 C 14.976562 -0.164062 14.066406 0.15625 13.015625 0.15625 C 11.972656 0.15625 11.070312 -0.164062 10.3125 -0.8125 C 9.550781 -1.46875 9.171875 -2.429688 9.171875 -3.703125 L 9.171875 -20.28125 L 4.5 -20.28125 C 3.269531 -20.28125 2.316406 -20.664062 1.640625 -21.4375 C 0.960938 -22.21875 0.625 -23.140625 0.625 -24.203125 C 0.625 -25.273438 0.960938 -26.195312 1.640625 -26.96875 C 2.316406 -27.738281 3.269531 -28.125 4.5 -28.125 L 21.5 -28.125 C 22.726562 -28.125 23.6875 -27.738281 24.375 -26.96875 C 25.070312 -26.195312 25.421875 -25.273438 25.421875 -24.203125 C 25.421875 -23.140625 25.070312 -22.21875 24.375 -21.4375 C 23.6875 -20.664062 22.726562 -20.28125 21.5 -20.28125 L 16.90625 -20.28125 Z M 16.90625 -3.703125 "/></g></g></g><g fill="#2d292b" fill-opacity="0.4"><g transform="translate(272.504758, 302.84775)"><g><path d="M 18.1875 -10.34375 C 18.15625 -10.351562 18.128906 -10.363281 18.109375 -10.375 L 9.328125 -10.375 L 9.328125 -3.703125 C 9.328125 -2.429688 8.941406 -1.46875 8.171875 -0.8125 C 7.398438 -0.164062 6.484375 0.15625 5.421875 0.15625 C 4.378906 0.15625 3.476562 -0.164062 2.71875 -0.8125 C 1.957031 -1.46875 1.578125 -2.429688 1.578125 -3.703125 L 1.578125 -24.40625 C 1.578125 -25.644531 1.957031 -26.59375 2.71875 -27.25 C 3.476562 -27.914062 4.378906 -28.25 5.421875 -28.25 C 6.484375 -28.25 7.398438 -27.914062 8.171875 -27.25 C 8.941406 -26.59375 9.328125 -25.644531 9.328125 -24.40625 L 9.328125 -17.890625 C 9.441406 -17.796875 9.644531 -17.726562 9.9375 -17.6875 L 17.84375 -17.6875 C 17.988281 -17.71875 18.101562 -17.757812 18.1875 -17.8125 L 18.1875 -24.40625 C 18.1875 -25.644531 18.566406 -26.59375 19.328125 -27.25 C 20.085938 -27.914062 20.988281 -28.25 22.03125 -28.25 C 23.082031 -28.25 23.992188 -27.914062 24.765625 -27.25 C 25.535156 -26.59375 25.921875 -25.644531 25.921875 -24.40625 L 25.921875 -3.703125 C 25.921875 -2.429688 25.535156 -1.46875 24.765625 -0.8125 C 23.992188 -0.164062 23.082031 0.15625 22.03125 0.15625 C 20.988281 0.15625 20.085938 -0.164062 19.328125 -0.8125 C 18.566406 -1.46875 18.1875 -2.429688 18.1875 -3.703125 Z M 18.1875 -10.34375 "/></g></g></g><g fill="#2d292b" fill-opacity="0.4"><g transform="translate(299.404161, 302.84775)"><g><path d="M 13.03125 -7.78125 L 26.984375 -7.78125 C 28.210938 -7.78125 29.164062 -7.398438 29.84375 -6.640625 C 30.519531 -5.890625 30.859375 -4.984375 30.859375 -3.921875 C 30.859375 -2.859375 30.519531 -1.9375 29.84375 -1.15625 C 29.164062 -0.382812 28.210938 0 26.984375 0 L 5.828125 0 L 5.828125 -0.078125 C 5.566406 -0.015625 5.300781 0.015625 5.03125 0.015625 C 4.019531 0.0234375 3.109375 -0.300781 2.296875 -0.96875 C 1.492188 -1.664062 1.003906 -2.507812 0.828125 -3.5 C 0.660156 -4.5 0.992188 -5.484375 1.828125 -6.453125 L 18.671875 -26.6875 C 19.460938 -27.632812 20.363281 -28.125 21.375 -28.15625 C 21.550781 -28.15625 21.722656 -28.144531 21.890625 -28.125 L 26.984375 -28.125 C 28.210938 -28.125 29.164062 -27.738281 29.84375 -26.96875 C 30.519531 -26.195312 30.859375 -25.273438 30.859375 -24.203125 C 30.859375 -23.140625 30.519531 -22.21875 29.84375 -21.4375 C 29.164062 -20.664062 28.210938 -20.28125 26.984375 -20.28125 L 23.453125 -20.28125 L 21.21875 -17.609375 L 27.1875 -17.609375 C 28.3125 -17.609375 29.1875 -17.257812 29.8125 -16.5625 C 30.4375 -15.863281 30.75 -15.03125 30.75 -14.0625 C 30.75 -13.101562 30.4375 -12.269531 29.8125 -11.5625 C 29.1875 -10.863281 28.3125 -10.515625 27.1875 -10.515625 L 15.3125 -10.515625 Z M 13.03125 -7.78125 "/></g></g></g><g fill="#2d292b" fill-opacity="0.4"><g transform="translate(331.843396, 302.84775)"><g><path d="M 23.734375 -3.296875 C 23.734375 -1.097656 22.441406 0 19.859375 0 L 5.328125 0 C 4.691406 0 4.128906 -0.113281 3.640625 -0.34375 C 3.160156 -0.570312 2.757812 -0.863281 2.4375 -1.21875 C 2.125 -1.570312 1.882812 -1.984375 1.71875 -2.453125 C 1.5625 -2.921875 1.484375 -3.410156 1.484375 -3.921875 C 1.484375 -4.398438 1.5625 -4.867188 1.71875 -5.328125 C 1.882812 -5.796875 2.132812 -6.210938 2.46875 -6.578125 C 2.800781 -6.941406 3.210938 -7.234375 3.703125 -7.453125 C 4.203125 -7.671875 4.769531 -7.78125 5.40625 -7.78125 L 15.4375 -7.78125 C 16.488281 -7.78125 17.007812 -7.929688 17 -8.234375 C 16.988281 -8.546875 16.984375 -8.878906 16.984375 -9.234375 C 16.984375 -9.609375 16.988281 -9.953125 17 -10.265625 C 17.007812 -10.585938 16.488281 -10.75 15.4375 -10.75 L 5.1875 -10.75 C 3.875 -10.75 2.847656 -10.992188 2.109375 -11.484375 C 1.378906 -11.972656 1 -13.003906 0.96875 -14.578125 C 0.863281 -16.410156 1.1875 -18.582031 1.9375 -21.09375 C 2.6875 -23.613281 4.128906 -25.414062 6.265625 -26.5 C 8.398438 -27.582031 10.726562 -28.125 13.25 -28.125 L 19 -28.125 C 19.664062 -28.125 20.25 -28.007812 20.75 -27.78125 C 21.257812 -27.5625 21.6875 -27.269531 22.03125 -26.90625 C 22.375 -26.550781 22.632812 -26.140625 22.8125 -25.671875 C 22.988281 -25.203125 23.078125 -24.726562 23.078125 -24.25 C 23.078125 -23.769531 23.019531 -23.359375 22.90625 -23.015625 C 22.800781 -22.671875 22.578125 -22.304688 22.234375 -21.921875 C 21.890625 -21.546875 21.457031 -21.242188 20.9375 -21.015625 C 20.414062 -20.785156 19.820312 -20.671875 19.15625 -20.671875 L 10.5 -20.671875 C 9.707031 -20.671875 9.128906 -20.441406 8.765625 -19.984375 C 8.398438 -19.523438 8.171875 -19.070312 8.078125 -18.625 C 7.984375 -18.1875 8.066406 -17.867188 8.328125 -17.671875 C 8.585938 -17.472656 8.984375 -17.375 9.515625 -17.375 L 19.375 -17.375 C 22.195312 -17.375 23.632812 -16.6875 23.6875 -15.3125 C 23.75 -13.945312 23.765625 -9.941406 23.734375 -3.296875 Z M 23.734375 -3.296875 "/></g></g></g><g fill="#ffbd59" fill-opacity="1"><g transform="translate(20.627228, 301.081969)"><g><path d="M 23.734375 -3.296875 C 23.734375 -1.097656 22.441406 0 19.859375 0 L 5.328125 0 C 4.691406 0 4.128906 -0.113281 3.640625 -0.34375 C 3.160156 -0.570312 2.757812 -0.863281 2.4375 -1.21875 C 2.125 -1.570312 1.882812 -1.984375 1.71875 -2.453125 C 1.5625 -2.921875 1.484375 -3.410156 1.484375 -3.921875 C 1.484375 -4.398438 1.5625 -4.867188 1.71875 -5.328125 C 1.882812 -5.796875 2.132812 -6.210938 2.46875 -6.578125 C 2.800781 -6.941406 3.210938 -7.234375 3.703125 -7.453125 C 4.203125 -7.671875 4.769531 -7.78125 5.40625 -7.78125 L 15.4375 -7.78125 C 16.488281 -7.78125 17.007812 -7.929688 17 -8.234375 C 16.988281 -8.546875 16.984375 -8.878906 16.984375 -9.234375 C 16.984375 -9.609375 16.988281 -9.953125 17 -10.265625 C 17.007812 -10.585938 16.488281 -10.75 15.4375 -10.75 L 5.1875 -10.75 C 3.875 -10.75 2.847656 -10.992188 2.109375 -11.484375 C 1.378906 -11.972656 1 -13.003906 0.96875 -14.578125 C 0.863281 -16.410156 1.1875 -18.582031 1.9375 -21.09375 C 2.6875 -23.613281 4.128906 -25.414062 6.265625 -26.5 C 8.398438 -27.582031 10.726562 -28.125 13.25 -28.125 L 19 -28.125 C 19.664062 -28.125 20.25 -28.007812 20.75 -27.78125 C 21.257812 -27.5625 21.6875 -27.269531 22.03125 -26.90625 C 22.375 -26.550781 22.632812 -26.140625 22.8125 -25.671875 C 22.988281 -25.203125 23.078125 -24.726562 23.078125 -24.25 C 23.078125 -23.769531 23.019531 -23.359375 22.90625 -23.015625 C 22.800781 -22.671875 22.578125 -22.304688 22.234375 -21.921875 C 21.890625 -21.546875 21.457031 -21.242188 20.9375 -21.015625 C 20.414062 -20.785156 19.820312 -20.671875 19.15625 -20.671875 L 10.5 -20.671875 C 9.707031 -20.671875 9.128906 -20.441406 8.765625 -19.984375 C 8.398438 -19.523438 8.171875 -19.070312 8.078125 -18.625 C 7.984375 -18.1875 8.066406 -17.867188 8.328125 -17.671875 C 8.585938 -17.472656 8.984375 -17.375 9.515625 -17.375 L 19.375 -17.375 C 22.195312 -17.375 23.632812 -16.6875 23.6875 -15.3125 C 23.75 -13.945312 23.765625 -9.941406 23.734375 -3.296875 Z M 23.734375 -3.296875 "/></g></g></g><g fill="#ffbd59" fill-opacity="1"><g transform="translate(44.893254, 301.081969)"><g><path d="M 17.71875 -8.46875 L 17.71875 -24.265625 C 17.71875 -25.453125 18.09375 -26.359375 18.84375 -26.984375 C 19.601562 -27.609375 20.507812 -27.921875 21.5625 -27.921875 C 22.613281 -27.921875 23.519531 -27.609375 24.28125 -26.984375 C 25.050781 -26.359375 25.4375 -25.453125 25.4375 -24.265625 L 25.4375 -3.78125 C 25.4375 -1.25 24.144531 0.015625 21.5625 0.015625 L 14.890625 0.03125 L 13.15625 -0.0625 C 11.976562 -0.1875 10.816406 -0.453125 9.671875 -0.859375 C 7.953125 -1.453125 6.425781 -2.363281 5.09375 -3.59375 C 3.769531 -4.820312 2.691406 -6.335938 1.859375 -8.140625 C 1.035156 -9.953125 0.625 -12.085938 0.625 -14.546875 L 0.625 -24 C 0.625 -24.644531 0.738281 -25.210938 0.96875 -25.703125 C 1.195312 -26.191406 1.492188 -26.601562 1.859375 -26.9375 C 2.234375 -27.28125 2.65625 -27.535156 3.125 -27.703125 C 3.59375 -27.867188 4.078125 -27.953125 4.578125 -27.953125 C 5.085938 -27.953125 5.582031 -27.867188 6.0625 -27.703125 C 6.539062 -27.535156 6.957031 -27.28125 7.3125 -26.9375 C 7.675781 -26.601562 7.972656 -26.191406 8.203125 -25.703125 C 8.429688 -25.210938 8.546875 -24.644531 8.546875 -24 L 8.546875 -13.953125 C 8.546875 -12.859375 8.71875 -11.910156 9.0625 -11.109375 C 9.40625 -10.304688 9.941406 -9.617188 10.671875 -9.046875 C 11.398438 -8.472656 12.550781 -8.125 14.125 -8 C 15.53125 -7.863281 16.640625 -7.820312 17.453125 -7.875 C 17.554688 -7.914062 17.632812 -7.960938 17.6875 -8.015625 L 17.6875 -8.46875 Z M 17.71875 -8.46875 "/></g></g></g><g fill="#ffbd59" fill-opacity="1"><g transform="translate(70.953874, 301.081969)"><g><path d="M 16.53125 -20.28125 L 9.625 -20.28125 C 9.476562 -20.25 9.363281 -20.195312 9.28125 -20.125 L 9.28125 -17.03125 C 9.457031 -16.914062 9.769531 -16.835938 10.21875 -16.796875 L 16.21875 -16.796875 C 16.457031 -16.835938 16.632812 -16.890625 16.75 -16.953125 L 16.75 -20.1875 C 16.6875 -20.226562 16.613281 -20.257812 16.53125 -20.28125 Z M 9.28125 -9.359375 L 9.28125 -3.921875 C 9.28125 -2.628906 8.894531 -1.65625 8.125 -1 C 7.351562 -0.351562 6.453125 -0.03125 5.421875 -0.03125 C 4.378906 -0.03125 3.476562 -0.351562 2.71875 -1 C 1.957031 -1.65625 1.578125 -2.628906 1.578125 -3.921875 L 1.578125 -24.203125 C 1.578125 -26.816406 2.859375 -28.125 5.421875 -28.125 L 20.546875 -28.125 C 21.773438 -28.125 22.726562 -27.738281 23.40625 -26.96875 C 24.082031 -26.195312 24.410156 -25.078125 24.390625 -23.609375 L 24.390625 -13.125 C 24.390625 -11.875 24.015625 -10.929688 23.265625 -10.296875 C 22.523438 -9.671875 21.644531 -9.359375 20.625 -9.359375 Z M 9.28125 -9.359375 "/></g></g></g><g fill="#ffbd59" fill-opacity="1"><g transform="translate(96.214735, 301.081969)"><g><path d="M 13.03125 -7.78125 L 26.984375 -7.78125 C 28.210938 -7.78125 29.164062 -7.398438 29.84375 -6.640625 C 30.519531 -5.890625 30.859375 -4.984375 30.859375 -3.921875 C 30.859375 -2.859375 30.519531 -1.9375 29.84375 -1.15625 C 29.164062 -0.382812 28.210938 0 26.984375 0 L 5.828125 0 L 5.828125 -0.078125 C 5.566406 -0.015625 5.300781 0.015625 5.03125 0.015625 C 4.019531 0.0234375 3.109375 -0.300781 2.296875 -0.96875 C 1.492188 -1.664062 1.003906 -2.507812 0.828125 -3.5 C 0.660156 -4.5 0.992188 -5.484375 1.828125 -6.453125 L 18.671875 -26.6875 C 19.460938 -27.632812 20.363281 -28.125 21.375 -28.15625 C 21.550781 -28.15625 21.722656 -28.144531 21.890625 -28.125 L 26.984375 -28.125 C 28.210938 -28.125 29.164062 -27.738281 29.84375 -26.96875 C 30.519531 -26.195312 30.859375 -25.273438 30.859375 -24.203125 C 30.859375 -23.140625 30.519531 -22.21875 29.84375 -21.4375 C 29.164062 -20.664062 28.210938 -20.28125 26.984375 -20.28125 L 23.453125 -20.28125 L 21.21875 -17.609375 L 27.1875 -17.609375 C 28.3125 -17.609375 29.1875 -17.257812 29.8125 -16.5625 C 30.4375 -15.863281 30.75 -15.03125 30.75 -14.0625 C 30.75 -13.101562 30.4375 -12.269531 29.8125 -11.5625 C 29.1875 -10.863281 28.3125 -10.515625 27.1875 -10.515625 L 15.3125 -10.515625 Z M 13.03125 -7.78125 "/></g></g></g><g fill="#ffbd59" fill-opacity="1"><g transform="translate(128.65397, 301.081969)"><g><path d="M 20.015625 -10.859375 L 24.203125 -5.546875 C 24.984375 -4.523438 25.226562 -3.5625 24.9375 -2.65625 C 24.644531 -1.757812 24.09375 -1.050781 23.28125 -0.53125 C 22.425781 0 21.535156 0.195312 20.609375 0.0625 C 19.679688 -0.0703125 18.828125 -0.644531 18.046875 -1.65625 L 10.65625 -11.078125 C 10.039062 -12.054688 9.867188 -13 10.140625 -13.90625 C 10.335938 -14.59375 10.640625 -15.171875 11.046875 -15.640625 C 11.066406 -15.671875 11.082031 -15.695312 11.09375 -15.71875 C 11.6875 -16.269531 12.398438 -16.578125 13.234375 -16.640625 L 14.4375 -16.640625 L 16.609375 -16.65625 C 17.628906 -16.601562 18.414062 -16.59375 18.96875 -16.625 L 15.234375 -20.671875 L 9.421875 -20.671875 C 9.265625 -20.640625 9.148438 -20.582031 9.078125 -20.5 L 9.078125 -20.046875 L 9.046875 -20.046875 L 9.046875 -3.90625 L 9.03125 -3.90625 C 9.03125 -1.300781 7.726562 0 5.125 0 C 2.789062 0 1.625 -1.316406 1.625 -3.953125 L 1.625 -24.203125 C 1.625 -26.816406 2.726562 -28.125 4.9375 -28.125 L 16.234375 -28.125 C 17.222656 -28.125 18.539062 -27.382812 20.1875 -25.90625 L 23.609375 -21.671875 C 24.785156 -20.097656 25.347656 -18.726562 25.296875 -17.5625 C 25.335938 -17.207031 25.335938 -16.890625 25.296875 -16.609375 L 25.296875 -14.59375 C 25.296875 -13.34375 24.910156 -12.40625 24.140625 -11.78125 C 23.378906 -11.164062 22.484375 -10.859375 21.453125 -10.859375 Z M 20.015625 -10.859375 "/></g></g></g><g fill="#ffbd59" fill-opacity="1"><g transform="translate(154.890154, 301.081969)"><g/></g></g><g fill="#ffbd59" fill-opacity="1"><g transform="translate(164.799431, 301.081969)"><g><path d="M 10.28125 -7.71875 L 20.8125 -7.71875 C 22 -7.71875 22.90625 -7.34375 23.53125 -6.59375 C 24.15625 -5.84375 24.46875 -4.9375 24.46875 -3.875 C 24.46875 -2.820312 24.15625 -1.910156 23.53125 -1.140625 C 22.90625 -0.378906 22 0 20.8125 0 L 4.8125 0 C 2.28125 0 1.015625 -1.289062 1.015625 -3.875 L 1 -13.875 L 1.09375 -15.609375 C 1.21875 -16.773438 1.484375 -17.929688 1.890625 -19.078125 C 2.492188 -20.796875 3.410156 -22.320312 4.640625 -23.65625 C 5.867188 -24.988281 7.382812 -26.066406 9.1875 -26.890625 C 11 -27.710938 13.132812 -28.125 15.59375 -28.125 L 19.765625 -28.125 C 20.410156 -28.125 20.976562 -28.007812 21.46875 -27.78125 C 21.957031 -27.5625 22.367188 -27.265625 22.703125 -26.890625 C 23.046875 -26.523438 23.300781 -26.109375 23.46875 -25.640625 C 23.632812 -25.171875 23.71875 -24.679688 23.71875 -24.171875 C 23.71875 -23.660156 23.632812 -23.164062 23.46875 -22.6875 C 23.300781 -22.207031 23.046875 -21.785156 22.703125 -21.421875 C 22.367188 -21.066406 21.957031 -20.773438 21.46875 -20.546875 C 20.976562 -20.316406 20.410156 -20.203125 19.765625 -20.203125 L 14.984375 -20.203125 C 13.890625 -20.203125 12.941406 -20.03125 12.140625 -19.6875 C 11.335938 -19.34375 10.648438 -18.804688 10.078125 -18.078125 C 9.515625 -17.347656 9.164062 -16.207031 9.03125 -14.65625 C 8.90625 -13.101562 8.875 -11.113281 8.9375 -8.6875 C 9.050781 -8.082031 9.5 -7.757812 10.28125 -7.71875 Z M 10.28125 -7.71875 "/></g></g></g><g fill="#ffbd59" fill-opacity="1"><g transform="translate(189.670163, 301.081969)"><g><path d="M 19.25 -7.78125 C 20.445312 -7.78125 21.359375 -7.398438 21.984375 -6.640625 C 22.617188 -5.890625 22.9375 -4.984375 22.9375 -3.921875 C 22.9375 -2.859375 22.617188 -1.9375 21.984375 -1.15625 C 21.359375 -0.382812 20.445312 0 19.25 0 L 5.421875 0 C 2.859375 0 1.578125 -1.304688 1.578125 -3.921875 L 1.578125 -24.40625 C 1.578125 -25.644531 1.957031 -26.59375 2.71875 -27.25 C 3.476562 -27.914062 4.378906 -28.25 5.421875 -28.25 C 6.453125 -28.25 7.351562 -27.914062 8.125 -27.25 C 8.894531 -26.59375 9.28125 -25.644531 9.28125 -24.40625 L 9.28125 -8.609375 C 9.351562 -8.015625 9.679688 -7.738281 10.265625 -7.78125 Z M 19.25 -7.78125 "/></g></g></g><g fill="#ffbd59" fill-opacity="1"><g transform="translate(213.507047, 301.081969)"><g><path d="M 1.109375 -14.0625 C 1.109375 -16.050781 1.484375 -17.914062 2.234375 -19.65625 C 2.984375 -21.394531 4.003906 -22.910156 5.296875 -24.203125 C 6.597656 -25.503906 8.117188 -26.53125 9.859375 -27.28125 C 11.597656 -28.03125 13.460938 -28.40625 15.453125 -28.40625 C 17.453125 -28.40625 19.320312 -28.03125 21.0625 -27.28125 C 22.8125 -26.53125 24.332031 -25.503906 25.625 -24.203125 C 26.914062 -22.910156 27.941406 -21.394531 28.703125 -19.65625 C 29.460938 -17.914062 29.84375 -16.050781 29.84375 -14.0625 C 29.84375 -12.0625 29.460938 -10.195312 28.703125 -8.46875 C 27.941406 -6.738281 26.914062 -5.21875 25.625 -3.90625 C 24.332031 -2.601562 22.8125 -1.582031 21.0625 -0.84375 C 19.320312 -0.101562 17.453125 0.265625 15.453125 0.265625 C 13.460938 0.265625 11.597656 -0.101562 9.859375 -0.84375 C 8.117188 -1.582031 6.597656 -2.601562 5.296875 -3.90625 C 4.003906 -5.21875 2.984375 -6.738281 2.234375 -8.46875 C 1.484375 -10.195312 1.109375 -12.0625 1.109375 -14.0625 Z M 8.96875 -13.953125 C 8.96875 -13.035156 9.144531 -12.179688 9.5 -11.390625 C 9.851562 -10.609375 10.320312 -9.925781 10.90625 -9.34375 C 11.488281 -8.757812 12.171875 -8.300781 12.953125 -7.96875 C 13.742188 -7.632812 14.585938 -7.46875 15.484375 -7.46875 C 16.398438 -7.46875 17.25 -7.632812 18.03125 -7.96875 C 18.820312 -8.300781 19.515625 -8.757812 20.109375 -9.34375 C 20.710938 -9.925781 21.1875 -10.609375 21.53125 -11.390625 C 21.875 -12.179688 22.046875 -13.035156 22.046875 -13.953125 C 22.046875 -14.847656 21.875 -15.691406 21.53125 -16.484375 C 21.1875 -17.285156 20.710938 -17.976562 20.109375 -18.5625 C 19.515625 -19.15625 18.820312 -19.625 18.03125 -19.96875 C 17.25 -20.320312 16.398438 -20.5 15.484375 -20.5 C 14.585938 -20.5 13.742188 -20.320312 12.953125 -19.96875 C 12.171875 -19.625 11.488281 -19.15625 10.90625 -18.5625 C 10.320312 -17.976562 9.851562 -17.285156 9.5 -16.484375 C 9.144531 -15.691406 8.96875 -14.847656 8.96875 -13.953125 Z M 8.96875 -13.953125 "/></g></g></g><g fill="#ffbd59" fill-opacity="1"><g transform="translate(244.463792, 301.081969)"><g><path d="M 16.90625 -3.703125 C 16.90625 -2.429688 16.519531 -1.46875 15.75 -0.8125 C 14.976562 -0.164062 14.066406 0.15625 13.015625 0.15625 C 11.972656 0.15625 11.070312 -0.164062 10.3125 -0.8125 C 9.550781 -1.46875 9.171875 -2.429688 9.171875 -3.703125 L 9.171875 -20.28125 L 4.5 -20.28125 C 3.269531 -20.28125 2.316406 -20.664062 1.640625 -21.4375 C 0.960938 -22.21875 0.625 -23.140625 0.625 -24.203125 C 0.625 -25.273438 0.960938 -26.195312 1.640625 -26.96875 C 2.316406 -27.738281 3.269531 -28.125 4.5 -28.125 L 21.5 -28.125 C 22.726562 -28.125 23.6875 -27.738281 24.375 -26.96875 C 25.070312 -26.195312 25.421875 -25.273438 25.421875 -24.203125 C 25.421875 -23.140625 25.070312 -22.21875 24.375 -21.4375 C 23.6875 -20.664062 22.726562 -20.28125 21.5 -20.28125 L 16.90625 -20.28125 Z M 16.90625 -3.703125 "/></g></g></g><g fill="#ffbd59" fill-opacity="1"><g transform="translate(270.738988, 301.081969)"><g><path d="M 18.1875 -10.34375 C 18.15625 -10.351562 18.128906 -10.363281 18.109375 -10.375 L 9.328125 -10.375 L 9.328125 -3.703125 C 9.328125 -2.429688 8.941406 -1.46875 8.171875 -0.8125 C 7.398438 -0.164062 6.484375 0.15625 5.421875 0.15625 C 4.378906 0.15625 3.476562 -0.164062 2.71875 -0.8125 C 1.957031 -1.46875 1.578125 -2.429688 1.578125 -3.703125 L 1.578125 -24.40625 C 1.578125 -25.644531 1.957031 -26.59375 2.71875 -27.25 C 3.476562 -27.914062 4.378906 -28.25 5.421875 -28.25 C 6.484375 -28.25 7.398438 -27.914062 8.171875 -27.25 C 8.941406 -26.59375 9.328125 -25.644531 9.328125 -24.40625 L 9.328125 -17.890625 C 9.441406 -17.796875 9.644531 -17.726562 9.9375 -17.6875 L 17.84375 -17.6875 C 17.988281 -17.71875 18.101562 -17.757812 18.1875 -17.8125 L 18.1875 -24.40625 C 18.1875 -25.644531 18.566406 -26.59375 19.328125 -27.25 C 20.085938 -27.914062 20.988281 -28.25 22.03125 -28.25 C 23.082031 -28.25 23.992188 -27.914062 24.765625 -27.25 C 25.535156 -26.59375 25.921875 -25.644531 25.921875 -24.40625 L 25.921875 -3.703125 C 25.921875 -2.429688 25.535156 -1.46875 24.765625 -0.8125 C 23.992188 -0.164062 23.082031 0.15625 22.03125 0.15625 C 20.988281 0.15625 20.085938 -0.164062 19.328125 -0.8125 C 18.566406 -1.46875 18.1875 -2.429688 18.1875 -3.703125 Z M 18.1875 -10.34375 "/></g></g></g><g fill="#ffbd59" fill-opacity="1"><g transform="translate(297.638391, 301.081969)"><g><path d="M 13.03125 -7.78125 L 26.984375 -7.78125 C 28.210938 -7.78125 29.164062 -7.398438 29.84375 -6.640625 C 30.519531 -5.890625 30.859375 -4.984375 30.859375 -3.921875 C 30.859375 -2.859375 30.519531 -1.9375 29.84375 -1.15625 C 29.164062 -0.382812 28.210938 0 26.984375 0 L 5.828125 0 L 5.828125 -0.078125 C 5.566406 -0.015625 5.300781 0.015625 5.03125 0.015625 C 4.019531 0.0234375 3.109375 -0.300781 2.296875 -0.96875 C 1.492188 -1.664062 1.003906 -2.507812 0.828125 -3.5 C 0.660156 -4.5 0.992188 -5.484375 1.828125 -6.453125 L 18.671875 -26.6875 C 19.460938 -27.632812 20.363281 -28.125 21.375 -28.15625 C 21.550781 -28.15625 21.722656 -28.144531 21.890625 -28.125 L 26.984375 -28.125 C 28.210938 -28.125 29.164062 -27.738281 29.84375 -26.96875 C 30.519531 -26.195312 30.859375 -25.273438 30.859375 -24.203125 C 30.859375 -23.140625 30.519531 -22.21875 29.84375 -21.4375 C 29.164062 -20.664062 28.210938 -20.28125 26.984375 -20.28125 L 23.453125 -20.28125 L 21.21875 -17.609375 L 27.1875 -17.609375 C 28.3125 -17.609375 29.1875 -17.257812 29.8125 -16.5625 C 30.4375 -15.863281 30.75 -15.03125 30.75 -14.0625 C 30.75 -13.101562 30.4375 -12.269531 29.8125 -11.5625 C 29.1875 -10.863281 28.3125 -10.515625 27.1875 -10.515625 L 15.3125 -10.515625 Z M 13.03125 -7.78125 "/></g></g></g><g fill="#ffbd59" fill-opacity="1"><g transform="translate(330.077626, 301.081969)"><g><path d="M 23.734375 -3.296875 C 23.734375 -1.097656 22.441406 0 19.859375 0 L 5.328125 0 C 4.691406 0 4.128906 -0.113281 3.640625 -0.34375 C 3.160156 -0.570312 2.757812 -0.863281 2.4375 -1.21875 C 2.125 -1.570312 1.882812 -1.984375 1.71875 -2.453125 C 1.5625 -2.921875 1.484375 -3.410156 1.484375 -3.921875 C 1.484375 -4.398438 1.5625 -4.867188 1.71875 -5.328125 C 1.882812 -5.796875 2.132812 -6.210938 2.46875 -6.578125 C 2.800781 -6.941406 3.210938 -7.234375 3.703125 -7.453125 C 4.203125 -7.671875 4.769531 -7.78125 5.40625 -7.78125 L 15.4375 -7.78125 C 16.488281 -7.78125 17.007812 -7.929688 17 -8.234375 C 16.988281 -8.546875 16.984375 -8.878906 16.984375 -9.234375 C 16.984375 -9.609375 16.988281 -9.953125 17 -10.265625 C 17.007812 -10.585938 16.488281 -10.75 15.4375 -10.75 L 5.1875 -10.75 C 3.875 -10.75 2.847656 -10.992188 2.109375 -11.484375 C 1.378906 -11.972656 1 -13.003906 0.96875 -14.578125 C 0.863281 -16.410156 1.1875 -18.582031 1.9375 -21.09375 C 2.6875 -23.613281 4.128906 -25.414062 6.265625 -26.5 C 8.398438 -27.582031 10.726562 -28.125 13.25 -28.125 L 19 -28.125 C 19.664062 -28.125 20.25 -28.007812 20.75 -27.78125 C 21.257812 -27.5625 21.6875 -27.269531 22.03125 -26.90625 C 22.375 -26.550781 22.632812 -26.140625 22.8125 -25.671875 C 22.988281 -25.203125 23.078125 -24.726562 23.078125 -24.25 C 23.078125 -23.769531 23.019531 -23.359375 22.90625 -23.015625 C 22.800781 -22.671875 22.578125 -22.304688 22.234375 -21.921875 C 21.890625 -21.546875 21.457031 -21.242188 20.9375 -21.015625 C 20.414062 -20.785156 19.820312 -20.671875 19.15625 -20.671875 L 10.5 -20.671875 C 9.707031 -20.671875 9.128906 -20.441406 8.765625 -19.984375 C 8.398438 -19.523438 8.171875 -19.070312 8.078125 -18.625 C 7.984375 -18.1875 8.066406 -17.867188 8.328125 -17.671875 C 8.585938 -17.472656 8.984375 -17.375 9.515625 -17.375 L 19.375 -17.375 C 22.195312 -17.375 23.632812 -16.6875 23.6875 -15.3125 C 23.75 -13.945312 23.765625 -9.941406 23.734375 -3.296875 Z M 23.734375 -3.296875 "/></g></g></g></svg>